# xmcd
#
# Track frame offsets:
#	183
#	13858
#	29068
#	44283
#	64950
#	78123
#	97785
#	116820
#	130275
#	145608
#	167598
#	185013
# Disc length: 2640 seconds
# Revision: 1
# Processed by: cddbd v1.5.1PL2 Copyright (c) Steve Scherf et al.
#
# Submitted via: libkcddb 0.21
#
DISCID=a00a4e0c
DTITLE=Stefan Borsch - En liten fågel
DYEAR=1900
DGENRE=Dansband
TTITLE0=En liten fågel
TTITLE1=För alltid skall jag längta
TTITLE2=Godnatt Catarina
TTITLE3=Till min kära
TTITLE4=Minns att jag finns
TTITLE5=Jennys ögon
TTITLE6=En gammal man och ett hav
TTITLE7=Stopp stanna upp
TTITLE8=Tack för alla minnen
TTITLE9=All den kärlek jorden rymmer
TTITLE10=Barfotabarn
TTITLE11=Det är sången om dej
EXTD=TMCCD 011
EXTT0=Ein bischen frieden
EXTT1=
EXTT2=
EXTT3=
EXTT4=
EXTT5=The eyes of Jenny
EXTT6=Der alte mann unde das meer
EXTT7=
EXTT8=
EXTT9=Alle liebe dieser erde
EXTT10=
EXTT11=La Paloma
PLAYORDER=
